<svg width="48" height="48" viewBox="0 0 48 48" fill="none" xmlns="http://www.w3.org/2000/svg">
<path d="M43.5 34.5H40.5C41.4816 33.2059 42.0088 31.6242 42 30C42 28.0108 41.2098 26.1032 39.8033 24.6967C38.3968 23.2901 36.4891 22.5 34.5 22.5H13.5C11.5109 22.5 9.60322 23.2901 8.1967 24.6967C6.79018 26.1032 6 28.0108 6 30C5.99119 31.6242 6.51843 33.2059 7.5 34.5H4.5C4.10218 34.5 3.72064 34.658 3.43934 34.9393C3.15804 35.2206 3 35.6021 3 36C3 36.3978 3.15804 36.7793 3.43934 37.0606C3.72064 37.3419 4.10218 37.5 4.5 37.5H6V42C6 42.3978 6.15804 42.7793 6.43934 43.0606C6.72064 43.3419 7.10218 43.5 7.5 43.5H40.5C40.8978 43.5 41.2794 43.3419 41.5607 43.0606C41.842 42.7793 42 42.3978 42 42V37.5H43.5C43.8978 37.5 44.2794 37.3419 44.5607 37.0606C44.842 36.7793 45 36.3978 45 36C45 35.6021 44.842 35.2206 44.5607 34.9393C44.2794 34.658 43.8978 34.5 43.5 34.5ZM9 30C9 28.8065 9.47411 27.6619 10.318 26.818C11.1619 25.9741 12.3065 25.5 13.5 25.5H14.385L13.935 25.935C13.7944 26.0744 13.6828 26.2403 13.6067 26.4231C13.5305 26.6059 13.4913 26.802 13.4913 27C13.4913 27.198 13.5305 27.394 13.6067 27.5768C13.6828 27.7596 13.7944 27.9255 13.935 28.065C14.0744 28.2056 14.2403 28.3172 14.4231 28.3933C14.6059 28.4695 14.802 28.5087 15 28.5087C15.198 28.5087 15.3941 28.4695 15.5769 28.3933C15.7597 28.3172 15.9256 28.2056 16.065 28.065L18.615 25.5H21.885L21.435 25.935C21.2944 26.0744 21.1828 26.2403 21.1067 26.4231C21.0305 26.6059 20.9913 26.802 20.9913 27C20.9913 27.198 21.0305 27.394 21.1067 27.5768C21.1828 27.7596 21.2944 27.9255 21.435 28.065C21.5744 28.2056 21.7403 28.3172 21.9231 28.3933C22.1059 28.4695 22.302 28.5087 22.5 28.5087C22.698 28.5087 22.8941 28.4695 23.0769 28.3933C23.2597 28.3172 23.4256 28.2056 23.565 28.065L26.115 25.5H29.385L28.935 25.935C28.7944 26.0744 28.6828 26.2403 28.6067 26.4231C28.5305 26.6059 28.4913 26.802 28.4913 27C28.4913 27.198 28.5305 27.394 28.6067 27.5768C28.6828 27.7596 28.7944 27.9255 28.935 28.065C29.0744 28.2056 29.2403 28.3172 29.4231 28.3933C29.6059 28.4695 29.802 28.5087 30 28.5087C30.198 28.5087 30.3941 28.4695 30.5769 28.3933C30.7597 28.3172 30.9256 28.2056 31.065 28.065L33.615 25.5H34.5C35.6935 25.5 36.8381 25.9741 37.682 26.818C38.5259 27.6619 39 28.8065 39 30C39 31.1934 38.5259 32.338 37.682 33.182C36.8381 34.0259 35.6935 34.5 34.5 34.5H13.5C12.3065 34.5 11.1619 34.0259 10.318 33.182C9.47411 32.338 9 31.1934 9 30ZM39 40.5H9V37.5H39V40.5ZM12.255 7.49997L13.755 5.24997C13.9895 4.95891 14.3241 4.76586 14.6934 4.70862C15.0628 4.65139 15.4402 4.73409 15.7517 4.94054C16.0633 5.14699 16.2865 5.46231 16.3778 5.82474C16.469 6.18718 16.4217 6.57062 16.245 6.89997L14.745 9.14997C14.571 9.418 14.5081 9.74324 14.5697 10.0568C14.6313 10.3704 14.8125 10.6477 15.075 10.83C15.5353 11.1342 15.9309 11.5264 16.239 11.984C16.5472 12.4417 16.7618 12.9557 16.8705 13.4966C16.9793 14.0375 16.98 14.5946 16.8726 15.1358C16.7653 15.6769 16.552 16.1915 16.245 16.65L14.745 18.9C14.6008 19.0925 14.4124 19.2475 14.1957 19.3519C13.979 19.4563 13.7404 19.5071 13.5 19.5C13.2051 19.5033 12.9166 19.4142 12.675 19.245C12.3462 19.025 12.1176 18.6841 12.0389 18.2964C11.9602 17.9087 12.0379 17.5057 12.255 17.175L13.755 14.925C13.9368 14.6659 14.0117 14.3468 13.9642 14.0339C13.9167 13.721 13.7505 13.4384 13.5 13.245C12.579 12.6432 11.932 11.703 11.699 10.6279C11.466 9.55268 11.6658 8.429 12.255 7.49997ZM22.005 7.49997L23.505 5.24997C23.7395 4.95891 24.0741 4.76586 24.4435 4.70862C24.8128 4.65139 25.1902 4.73409 25.5017 4.94054C25.8133 5.14699 26.0365 5.46231 26.1278 5.82474C26.219 6.18718 26.1717 6.57062 25.995 6.89997L24.495 9.14997C24.321 9.418 24.2581 9.74324 24.3197 10.0568C24.3813 10.3704 24.5625 10.6477 24.825 10.83C25.2853 11.1342 25.6809 11.5264 25.989 11.984C26.2972 12.4417 26.5118 12.9557 26.6205 13.4966C26.7293 14.0375 26.73 14.5946 26.6226 15.1358C26.5153 15.6769 26.302 16.1915 25.995 16.65L24.495 18.9C24.3591 19.1063 24.1744 19.2759 23.9572 19.3937C23.74 19.5114 23.4971 19.5737 23.25 19.575C22.9551 19.5783 22.6666 19.4892 22.425 19.32C22.0962 19.1 21.8676 18.7591 21.7889 18.3714C21.7102 17.9837 21.7879 17.5807 22.005 17.25L23.505 15C23.679 14.7319 23.7419 14.4067 23.6803 14.0931C23.6187 13.7796 23.4375 13.5023 23.175 13.32C22.7147 13.0158 22.3191 12.6236 22.011 12.1659C21.7028 11.7083 21.4882 11.1942 21.3795 10.6533C21.2707 10.1124 21.27 9.55536 21.3774 9.01419C21.4847 8.47301 21.698 7.9584 22.005 7.49997ZM31.755 7.49997L33.255 5.24997C33.3537 5.06605 33.4896 4.90474 33.6542 4.77636C33.8187 4.64798 34.0083 4.55535 34.2107 4.5044C34.413 4.45345 34.6239 4.44529 34.8296 4.48046C35.0353 4.51563 35.2314 4.59334 35.4054 4.70863C35.5794 4.82391 35.7274 4.97424 35.84 5.14999C35.9525 5.32574 36.0272 5.52305 36.0591 5.7293C36.0911 5.93555 36.0797 6.1462 36.0256 6.34778C35.9715 6.54936 35.8759 6.73743 35.745 6.89997L34.245 9.14997C34.071 9.418 34.0081 9.74324 34.0697 10.0568C34.1313 10.3704 34.3125 10.6477 34.575 10.83C35.0353 11.1342 35.4309 11.5264 35.739 11.984C36.0472 12.4417 36.2618 12.9557 36.3705 13.4966C36.4793 14.0375 36.48 14.5946 36.3726 15.1358C36.2653 15.6769 36.052 16.1915 35.745 16.65L34.245 18.9C34.1008 19.0925 33.9124 19.2475 33.6957 19.3519C33.479 19.4563 33.2404 19.5071 33 19.5C32.7051 19.5033 32.4166 19.4142 32.175 19.245C31.8462 19.025 31.6176 18.6841 31.5389 18.2964C31.4602 17.9087 31.5379 17.5057 31.755 17.175L33.255 14.925C33.4368 14.6659 33.5117 14.3468 33.4642 14.0339C33.4167 13.721 33.2505 13.4384 33 13.245C32.079 12.6432 31.432 11.703 31.199 10.6279C30.966 9.55268 31.1658 8.429 31.755 7.49997Z" fill="#E47E7A"/>
</svg>
