<svg width="48" height="48" viewBox="0 0 48 48" fill="none" xmlns="http://www.w3.org/2000/svg">
<path d="M1.98679 38.1229L3.22718 41.1049C4.51263 44.2014 7.51083 46.2026 10.8642 46.2026H37.1358C40.4874 46.2026 43.4856 44.2023 44.7747 41.1049L46.0132 38.122C46.2494 37.5523 46.1863 36.9024 45.8438 36.3895C45.5012 35.8765 44.9243 35.5682 44.3077 35.5682H42.3858C42.3859 35.3756 42.3877 18.8537 42.3876 19.0403C42.3876 16.3937 40.235 14.241 37.5902 14.241H37.5884H29.1982C29.4051 13.6607 29.5385 13.0454 29.5385 12.3949C29.5385 9.95263 27.9393 7.89847 25.7412 7.1639C25.765 6.70304 25.8525 6.21908 26.0751 5.90177C26.1887 5.74041 26.3852 5.5466 26.9063 5.47449C27.9159 5.33476 28.6226 4.40267 28.482 3.39306C28.3432 2.38344 27.4039 1.6704 26.4015 1.81643C24.9754 2.01385 23.8197 2.69173 23.0553 3.77797C22.2814 4.87875 22.0669 6.18336 22.0439 7.23072C19.9561 8.02455 18.4616 10.0316 18.4616 12.3949C18.4616 13.0454 18.595 13.6607 18.8018 14.241H10.4135H10.4117C7.76504 14.241 5.61239 16.3937 5.61239 19.0403C5.61251 20.0694 5.61431 36.5618 5.6142 35.5682H3.69232C3.07574 35.5682 2.49881 35.8765 2.15626 36.3895C1.81372 36.9033 1.75062 37.5532 1.98679 38.1229ZM41.3654 39.6878C40.6515 41.4024 38.991 42.5102 37.1358 42.5102H10.8642C9.00903 42.5102 7.34857 41.4033 6.63824 39.6887L6.45975 39.2605C10.9376 39.2605 38.2599 39.2605 41.5421 39.2605L41.3654 39.6878ZM22.1539 12.3949C22.1539 11.3771 22.9814 10.5487 24 10.5487C25.0186 10.5487 25.8462 11.3771 25.8462 12.3949C25.8462 13.4126 25.0186 14.241 24 14.241C22.9814 14.241 22.1539 13.4126 22.1539 12.3949ZM37.5884 17.9333C38.1977 17.9333 38.6935 18.43 38.6935 19.0403V22.2069C38.6881 23.4656 37.6645 24.4877 36.4057 24.4877C35.208 24.4877 34.1178 23.5079 34.1178 22.198C34.1178 21.1785 33.2921 20.3519 32.2717 20.3519C31.2512 20.3519 30.4255 21.1785 30.4255 22.198C30.4255 23.461 29.3979 24.4877 28.1358 24.4877C26.9277 24.4877 25.8462 23.4976 25.8462 22.198C25.8462 21.1785 25.0204 20.3519 24 20.3519C22.9796 20.3519 22.1539 21.1785 22.1539 22.198C22.1539 23.461 21.1262 24.4877 19.8642 24.4877C18.6666 24.4877 17.5763 23.5079 17.5763 22.198C17.5763 21.1785 16.7506 20.3519 15.7302 20.3519C14.7098 20.3519 13.884 21.1785 13.884 22.198C13.884 23.461 12.8564 24.4877 11.5944 24.4877C10.3959 24.4877 9.3123 23.5121 9.30651 22.2073V19.0403C9.30651 18.43 9.8023 17.9333 10.4135 17.9333H37.5884ZM9.30651 27.7274C10.0195 28.0233 10.793 28.18 11.5944 28.18C13.1989 28.18 14.6593 27.5445 15.7356 26.5114C16.839 27.5887 18.2993 28.18 19.8642 28.18C21.4688 28.18 22.9291 27.5445 24.0054 26.5114C25.1106 27.5887 26.5709 28.18 28.1358 28.18C29.7404 28.18 31.2007 27.5445 32.2771 26.5114C33.3804 27.5887 34.8408 28.18 36.4057 28.18C37.2161 28.18 37.9881 28.0145 38.6935 27.7212V35.5682H9.30651V27.7274Z" fill="#E47E7A"/>
</svg>
