<svg width="36" height="36" viewBox="0 0 36 36" fill="none" xmlns="http://www.w3.org/2000/svg">
<path d="M24.6667 29.3333C25.0622 29.3333 25.4489 29.4506 25.7778 29.6704C26.1067 29.8902 26.3631 30.2025 26.5144 30.568C26.6658 30.9334 26.7054 31.3356 26.6282 31.7235C26.5511 32.1115 26.3606 32.4678 26.0809 32.7475C25.8012 33.0273 25.4448 33.2177 25.0569 33.2949C24.6689 33.3721 24.2668 33.3325 23.9013 33.1811C23.5359 33.0297 23.2235 32.7734 23.0037 32.4445C22.784 32.1156 22.6667 31.7289 22.6667 31.3333C22.6667 30.8029 22.8774 30.2942 23.2525 29.9191C23.6275 29.544 24.1362 29.3333 24.6667 29.3333ZM10.6667 25.3333H26.6667C27.0203 25.3333 27.3594 25.1929 27.6095 24.9428C27.8595 24.6928 28 24.3536 28 24C28 23.6464 27.8595 23.3072 27.6095 23.0572C27.3594 22.8071 27.0203 22.6667 26.6667 22.6667H15.3451C14.4765 22.6639 13.6322 22.3797 12.9388 21.8567C12.2453 21.3336 11.7401 20.6 11.4987 19.7656L9.38477 12.3665C9.32806 12.1681 9.31818 11.9592 9.35592 11.7563C9.39366 11.5534 9.47798 11.362 9.60224 11.1972C9.72651 11.0325 9.88732 10.8988 10.072 10.8067C10.2567 10.7146 10.4603 10.6667 10.6667 10.6667H27.0146C27.2906 9.88981 27.7994 9.21695 28.4717 8.73975C29.144 8.26256 29.9471 8.00424 30.7715 8H32C32.3536 8 32.6928 8.14048 32.9428 8.39052C33.1929 8.64057 33.3333 8.97971 33.3333 9.33333C33.3333 9.68696 33.1929 10.0261 32.9428 10.2761C32.6928 10.5262 32.3536 10.6667 32 10.6667H30.7715C30.482 10.6677 30.2007 10.7624 29.9696 10.9367C29.7385 11.111 29.5701 11.3554 29.4896 11.6335L29.2822 12.3598L29.2819 12.3665L27.0944 20.0228C28.1123 20.1323 29.0495 20.6279 29.713 21.4076C30.3765 22.1873 30.7157 23.1918 30.6609 24.2141C30.6061 25.2364 30.1614 26.1988 29.4183 26.9031C28.6753 27.6074 27.6905 28 26.6667 28H10.6667C10.3131 28 9.97392 27.8595 9.72387 27.6095C9.47382 27.3594 9.33334 27.0203 9.33334 26.6667C9.33334 26.313 9.47382 25.9739 9.72387 25.7239C9.97392 25.4738 10.3131 25.3333 10.6667 25.3333ZM12.4342 13.3333L14.0625 19.0325C14.143 19.3108 14.3114 19.5555 14.5427 19.7299C14.7739 19.9043 15.0554 19.9991 15.3451 20H24.3275L24.6674 18.8104L26.2315 13.3333H12.4342ZM14 29.3333C14.3956 29.3333 14.7823 29.4506 15.1111 29.6704C15.44 29.8902 15.6964 30.2025 15.8478 30.568C15.9991 30.9334 16.0388 31.3356 15.9616 31.7235C15.8844 32.1115 15.6939 32.4678 15.4142 32.7475C15.1345 33.0273 14.7782 33.2177 14.3902 33.2949C14.0022 33.3721 13.6001 33.3325 13.2346 33.1811C12.8692 33.0297 12.5568 32.7734 12.3371 32.4445C12.1173 32.1156 12 31.7289 12 31.3333C12 30.8029 12.2107 30.2942 12.5858 29.9191C12.9609 29.544 13.4696 29.3333 14 29.3333Z" fill="#313039"/>
<circle r="4" transform="matrix(-1 0 0 1 4 4)" fill="#E47E7A"/>
</svg>
