<svg width="48" height="48" viewBox="0 0 48 48" fill="none" xmlns="http://www.w3.org/2000/svg">
<path d="M24 18C22.8133 18 21.6533 18.3519 20.6666 19.0112C19.6799 19.6705 18.9108 20.6075 18.4567 21.7039C18.0026 22.8003 17.8838 24.0067 18.1153 25.1705C18.3468 26.3344 18.9182 27.4035 19.7574 28.2426C20.5965 29.0818 21.6656 29.6532 22.8295 29.8847C23.9933 30.1162 25.1997 29.9974 26.2961 29.5433C27.3925 29.0892 28.3295 28.3201 28.9888 27.3334C29.6481 26.3467 30 25.1867 30 24C30 22.4087 29.3679 20.8826 28.2426 19.7574C27.1174 18.6321 25.5913 18 24 18ZM24 26C23.6044 26 23.2178 25.8827 22.8889 25.6629C22.56 25.4432 22.3036 25.1308 22.1522 24.7654C22.0009 24.3999 21.9613 23.9978 22.0384 23.6098C22.1156 23.2219 22.3061 22.8655 22.5858 22.5858C22.8655 22.3061 23.2219 22.1156 23.6098 22.0384C23.9978 21.9613 24.3999 22.0009 24.7654 22.1522C25.1308 22.3036 25.4432 22.56 25.6629 22.8889C25.8827 23.2178 26 23.6044 26 24C26 24.5304 25.7893 25.0391 25.4142 25.4142C25.0391 25.7893 24.5304 26 24 26ZM43.22 18.46C43.1335 18.1587 42.9774 17.882 42.7643 17.6521C42.5512 17.4222 42.287 17.2457 41.9931 17.1367C41.6992 17.0277 41.3838 16.9893 41.0723 17.0246C40.7608 17.0599 40.462 17.168 40.2 17.34C39.5512 17.7793 38.7835 18.0096 38 18C36.9391 18 35.9217 17.5786 35.1716 16.8284C34.4214 16.0783 34 15.0609 34 14C34.0094 13.5321 33.8545 13.0757 33.5621 12.7103C33.2698 12.3448 32.8586 12.0935 32.4 12C31.7225 11.8541 31.1151 11.4811 30.6786 10.9427C30.2421 10.4044 30.0027 9.73306 30 9.04C30.0053 8.52958 30.1358 8.02825 30.38 7.58C30.5332 7.31125 30.622 7.01062 30.6393 6.70176C30.6567 6.3929 30.6021 6.08422 30.48 5.8C30.3583 5.5204 30.1743 5.27233 29.9421 5.07475C29.7098 4.87716 29.4355 4.7353 29.14 4.66C27.461 4.22576 25.7342 4.00403 24 4C20.0444 4 16.1776 5.17298 12.8886 7.37061C9.59961 9.56824 7.03616 12.6918 5.52241 16.3463C4.00866 20.0009 3.61259 24.0222 4.3843 27.9018C5.156 31.7814 7.06082 35.3451 9.85787 38.1421C12.6549 40.9392 16.2186 42.844 20.0982 43.6157C23.9778 44.3874 27.9991 43.9913 31.6537 42.4776C35.3082 40.9638 38.4318 38.4004 40.6294 35.1114C42.827 31.8224 44 27.9556 44 24C44.0046 22.1256 43.742 20.2602 43.22 18.46ZM9.66 31.06C9.19351 30.1203 8.8249 29.1351 8.56 28.12C8.96894 28.2392 9.32915 28.4858 9.58816 28.824C9.84717 29.1621 9.99146 29.5741 10 30C9.98927 30.3784 9.87136 30.746 9.66 31.06ZM12 34.5C12.9161 33.6921 13.5638 32.6239 13.8566 31.4381C14.1493 30.2523 14.0732 29.0053 13.6384 27.8639C13.2036 26.7225 12.4308 25.741 11.4232 25.0506C10.4157 24.3601 9.22141 23.9936 8 24C8.00325 22.463 8.22548 20.9343 8.66 19.46C9.02378 19.8007 9.50165 19.9932 10 20C10.5304 20.0186 11.0465 19.8257 11.4347 19.4637C11.8229 19.1018 12.0514 18.6004 12.07 18.07C12.0886 17.5396 11.8957 17.0235 11.5337 16.6353C11.1718 16.2471 10.6704 16.0186 10.14 16C11.5446 13.5672 13.565 11.547 15.998 10.1427C18.431 8.73837 21.1908 7.99937 24 8C24.6691 8.00034 25.3374 8.04712 26 8.14C25.9801 8.43967 25.9801 8.74033 26 9.04C26.0015 10.3945 26.3926 11.72 27.1267 12.8583C27.8608 13.9966 28.9068 14.8998 30.14 15.46C30.3384 16.524 30.7507 17.5366 31.3518 18.4367C31.9529 19.3367 32.7304 20.1054 33.6372 20.6962C34.5441 21.2871 35.5613 21.6878 36.6275 21.874C37.6937 22.0603 38.7866 22.0283 39.84 21.78C39.943 22.5156 39.9965 23.2573 40 24C40.001 25.6855 39.7309 27.3602 39.2 28.96C38.2457 28.3435 37.136 28.0106 36 28C34.8496 28.0175 33.7285 28.3655 32.7703 29.0024C31.8121 29.6392 31.0572 30.5382 30.5956 31.5921C30.134 32.646 29.9851 33.8104 30.1667 34.9465C30.3484 36.0826 30.8528 37.1426 31.62 38C28.436 39.7221 24.7621 40.3136 21.1985 39.6778C17.6349 39.0421 14.3922 37.2168 12 34.5ZM34.96 35.66C34.6737 35.4859 34.4358 35.2426 34.2681 34.9526C34.1003 34.6625 34.0082 34.335 34 34C34 33.4696 34.2107 32.9609 34.5858 32.5858C34.9609 32.2107 35.4696 32 36 32C36.2723 32.0062 36.5405 32.0679 36.7881 32.1814C37.0357 32.2948 37.2576 32.4577 37.44 32.66C36.7226 33.7569 35.8766 34.764 34.92 35.66H34.96ZM20 14C20 13.6044 20.1173 13.2178 20.3371 12.8889C20.5568 12.56 20.8692 12.3036 21.2346 12.1522C21.6001 12.0009 22.0022 11.9613 22.3902 12.0384C22.7781 12.1156 23.1345 12.3061 23.4142 12.5858C23.6939 12.8655 23.8844 13.2219 23.9616 13.6098C24.0387 13.9978 23.9991 14.3999 23.8478 14.7654C23.6964 15.1308 23.44 15.4432 23.1111 15.6629C22.7822 15.8827 22.3956 16 22 16C21.4696 16 20.9609 15.7893 20.5858 15.4142C20.2107 15.0391 20 14.5304 20 14ZM26 36C26 36.3956 25.8827 36.7822 25.6629 37.1111C25.4432 37.44 25.1308 37.6964 24.7654 37.8478C24.3999 37.9991 23.9978 38.0387 23.6098 37.9616C23.2219 37.8844 22.8655 37.6939 22.5858 37.4142C22.3061 37.1345 22.1156 36.7781 22.0384 36.3902C21.9613 36.0022 22.0009 35.6001 22.1522 35.2346C22.3036 34.8692 22.56 34.5568 22.8889 34.3371C23.2178 34.1173 23.6044 34 24 34C24.5304 34 25.0391 34.2107 25.4142 34.5858C25.7893 34.9609 26 35.4696 26 36Z" fill="#E47E7A"/>
</svg>
