<svg width="14" height="14" viewBox="0 0 14 14" fill="none" xmlns="http://www.w3.org/2000/svg">
<g clip-path="url(#clip0_10_2)">
<path d="M6.45372 10.8891L0.223657 4.65894C0.0794464 4.51484 -6.27229e-08 4.32249 -5.37575e-08 4.11738C-4.47921e-08 3.91228 0.0794465 3.71992 0.223657 3.57583L0.682352 3.11702C0.981244 2.81847 1.46703 2.81847 1.76547 3.11702L6.9971 8.34865L12.2345 3.11121C12.3787 2.96712 12.571 2.88755 12.776 2.88755C12.9812 2.88755 13.1734 2.96712 13.3178 3.11121L13.7763 3.57002C13.9206 3.71423 14 3.90647 14 4.11158C14 4.31668 13.9206 4.50904 13.7763 4.65313L7.54059 10.8891C7.39592 11.0336 7.20277 11.1129 6.99744 11.1124C6.79131 11.1129 6.59827 11.0336 6.45372 10.8891Z" fill="#E47E7A"/>
</g>
<defs>
<clipPath id="clip0_10_2">
<rect width="14" height="14" fill="white" transform="matrix(-4.37114e-08 1 1 4.37114e-08 0 0)"/>
</clipPath>
</defs>
</svg>
