<svg width="37" height="36" viewBox="0 0 37 36" fill="none" xmlns="http://www.w3.org/2000/svg">
<path d="M25.2446 4.87477C27.0319 4.87996 28.7445 5.57308 30.0083 6.80275C31.2721 8.03242 31.9845 9.69872 31.9898 11.4377V24.5623C31.9845 26.3013 31.2721 27.9676 30.0083 29.1972C28.7445 30.4269 27.0319 31.12 25.2446 31.1252H11.7554C9.96813 31.12 8.25555 30.4269 6.99172 29.1972C5.72789 27.9676 5.01551 26.3013 5.01018 24.5623V11.4377C5.01551 9.69872 5.72789 8.03242 6.99172 6.80275C8.25555 5.57308 9.96813 4.87996 11.7554 4.87477H25.2446ZM25.2446 2.25H11.7554C6.56172 2.25 2.3125 6.38437 2.3125 11.4377V24.5623C2.3125 29.6156 6.56172 33.75 11.7554 33.75H25.2446C30.4383 33.75 34.6875 29.6156 34.6875 24.5623V11.4377C34.6875 6.38437 30.4383 2.25 25.2446 2.25Z" fill="#E47E7A"/>
<path d="M27.268 11.4377C26.8678 11.4377 26.4766 11.3223 26.1438 11.1059C25.8111 10.8896 25.5517 10.5821 25.3986 10.2224C25.2454 9.86266 25.2053 9.46681 25.2834 9.08491C25.3615 8.70301 25.5542 8.35221 25.8372 8.07688C26.1202 7.80154 26.4807 7.61404 26.8732 7.53807C27.2657 7.46211 27.6726 7.5011 28.0423 7.65011C28.412 7.79912 28.7281 8.05146 28.9504 8.37522C29.1727 8.69897 29.2914 9.07961 29.2914 9.46899C29.292 9.72769 29.24 9.98395 29.1386 10.2231C29.0371 10.4622 28.888 10.6794 28.7 10.8624C28.512 11.0453 28.2887 11.1903 28.043 11.289C27.7972 11.3878 27.5339 11.4383 27.268 11.4377Z" fill="#E47E7A"/>
<path d="M18.5 12.7498C19.5672 12.7498 20.6105 13.0577 21.4979 13.6346C22.3853 14.2115 23.0769 15.0315 23.4853 15.9908C23.8937 16.9502 24.0006 18.0058 23.7924 19.0243C23.5842 20.0427 23.0703 20.9782 22.3156 21.7125C21.5609 22.4467 20.5995 22.9468 19.5527 23.1494C18.506 23.3519 17.421 23.248 16.435 22.8506C15.449 22.4532 14.6063 21.7803 14.0133 20.9169C13.4204 20.0535 13.1039 19.0384 13.1039 18C13.1055 16.608 13.6745 15.2735 14.6861 14.2892C15.6977 13.3049 17.0693 12.7513 18.5 12.7498ZM18.5 10.125C16.8992 10.125 15.3344 10.5869 14.0034 11.4522C12.6723 12.3175 11.6349 13.5474 11.0224 14.9864C10.4098 16.4253 10.2495 18.0087 10.5618 19.5363C10.8741 21.0639 11.6449 22.4671 12.7769 23.5685C13.9088 24.6698 15.351 25.4198 16.921 25.7237C18.491 26.0275 20.1184 25.8716 21.5973 25.2756C23.0763 24.6795 24.3404 23.6702 25.2297 22.3751C26.1191 21.0801 26.5937 19.5575 26.5937 18C26.5937 15.9114 25.741 13.9084 24.2231 12.4315C22.7053 10.9547 20.6466 10.125 18.5 10.125Z" fill="#E47E7A"/>
</svg>
