<svg width="14" height="14" viewBox="0 0 14 14" fill="none" xmlns="http://www.w3.org/2000/svg">
<g clip-path="url(#clip0_10_27)">
<path d="M3.11086 6.45372L9.34104 0.223657C9.48514 0.0794464 9.6775 -1.25446e-07 9.8826 -1.07515e-07C10.0877 -8.95842e-08 10.2801 0.0794464 10.4242 0.223657L10.883 0.682352C11.1815 0.981244 11.1815 1.46703 10.883 1.76547L5.65133 6.9971L10.8888 12.2345C11.0329 12.3787 11.1124 12.571 11.1124 12.776C11.1124 12.9812 11.0329 13.1734 10.8888 13.3178L10.43 13.7763C10.2857 13.9206 10.0935 14 9.8884 14C9.6833 14 9.49094 13.9206 9.34685 13.7763L3.11086 7.54059C2.96643 7.39592 2.88709 7.20277 2.88755 6.99744C2.88709 6.79131 2.96643 6.59827 3.11086 6.45372Z" fill="#E47E7A"/>
</g>
<defs>
<clipPath id="clip0_10_27">
<rect width="14" height="14" fill="white" transform="matrix(-1 -8.74228e-08 -8.74228e-08 1 14 0)"/>
</clipPath>
</defs>
</svg>
