<svg width="14" height="14" viewBox="0 0 14 14" fill="none" xmlns="http://www.w3.org/2000/svg">
<g clip-path="url(#clip0_10_31)">
<path d="M10.8891 7.54628L4.65896 13.7763C4.51486 13.9206 4.3225 14 4.1174 14C3.9123 14 3.71994 13.9206 3.57584 13.7763L3.11703 13.3176C2.81848 13.0188 2.81848 12.533 3.11703 12.2345L8.34867 7.0029L3.11123 1.76547C2.96713 1.62126 2.88757 1.42901 2.88757 1.22402C2.88757 1.0188 2.96713 0.826562 3.11123 0.682239L3.57004 0.223657C3.71425 0.0794466 3.90649 -1.78153e-07 4.11159 -2.14015e-07C4.3167 -2.49876e-07 4.50905 0.0794465 4.65315 0.223656L10.8891 6.45941C11.0336 6.60407 11.1129 6.79723 11.1124 7.00256C11.1129 7.20869 11.0336 7.40173 10.8891 7.54628Z" fill="#E5E5E5"/>
</g>
<defs>
<clipPath id="clip0_10_31">
<rect width="14" height="14" fill="white" transform="matrix(1 -1.74846e-07 -1.74846e-07 -1 0 14)"/>
</clipPath>
</defs>
</svg>
