<svg width="48" height="48" viewBox="0 0 48 48" fill="none" xmlns="http://www.w3.org/2000/svg">
<path d="M34.8757 11.9594C24.3294 8.19423 6.67766 10.308 1.77009 21.2078C0.640245 24.0327 3.13358 26.8283 6.06162 26.4372C6.06156 26.4374 6.06156 28.2333 6.06156 28.2333H4.39749C3.56911 28.2333 2.89749 28.9042 2.89749 29.7333V32.5751C2.89749 35.4359 5.22513 37.7635 8.0867 37.7635H39.9104C42.772 37.7635 45.0996 35.4359 45.0996 32.5751V29.7333C45.0996 28.9042 44.428 28.2333 43.5996 28.2333H41.9356V26.4374H42.6541C45.2606 26.5151 47.2696 23.6107 46.2267 21.2078C44.6019 17.1416 40.3875 13.8477 34.8757 11.9594ZM42.0996 32.5751C42.0996 33.7821 41.1175 34.7635 39.9104 34.7635H8.0867C6.87966 34.7635 5.89749 33.7821 5.89749 32.5751V31.2333H42.0996V32.5751ZM38.9356 28.2333H9.06156V26.4374H38.9356V28.2333H38.9356ZM43.355 23.0624C43.2788 23.1752 43.0577 23.4374 42.6541 23.4374H5.34305C4.93949 23.4374 4.7183 23.1752 4.64211 23.0624C4.55276 22.9305 4.42166 22.6566 4.55642 22.3211C5.65596 19.5688 8.41592 17.2173 12.096 15.5907L13.4773 18.5931C14.3217 20.3774 17.0096 19.1181 16.2034 17.3391C16.2034 17.3392 14.9176 14.5446 14.9176 14.5446C17.0547 13.8896 19.3942 13.4571 21.8407 13.2953L24.2762 18.5931C25.1134 20.3762 27.8115 19.1181 27.0022 17.3391C27.0022 17.3392 25.1199 13.2448 25.1199 13.2448C28.001 13.3436 30.7587 13.8159 33.2364 14.5915L35.075 18.5931C35.4217 19.3527 36.3296 19.672 37.0643 19.3284C37.8172 18.9827 38.1468 18.0921 37.8011 17.3392L37.3104 16.2714C40.2803 17.8458 42.4865 19.9324 43.4407 22.3211C43.5755 22.6566 43.4444 22.9305 43.355 23.0624Z" fill="#E47E7A"/>
</svg>
